<svg width="202" height="207" viewBox="0 0 202 207" fill="none" xmlns="http://www.w3.org/2000/svg">
<path fill-rule="evenodd" clip-rule="evenodd" d="M32.4258 122.337C34.6809 129.501 42.4444 142.282 48.3781 148.931C54.5409 140.853 60.7855 132.138 67.0163 123.02C67.2393 122.159 67.6165 121.617 68.1991 121.284C74.1442 112.533 80.0711 103.43 85.8967 94.178C85.7663 94.175 85.6384 94.1597 85.5146 94.1311C83.5118 93.6681 79.3711 85.6195 79.918 83.2537C80.7267 79.7557 83.7743 81.1049 86.5409 86.186C87.3355 87.6448 88.0453 88.9986 88.5319 89.9721C92.2786 83.9626 95.9776 77.9041 99.6065 71.8521C98.4722 71.4648 97.5425 70.8436 96.8018 69.9858C95.4471 68.4168 95.5159 68.0707 97.964 64.1179C101.284 58.757 102.176 54.8014 101.596 48.0163C101.15 42.7935 101.215 42.5472 103.256 41.6738C106.707 40.1978 111.364 42.229 114.864 45.7655C116.732 42.4931 118.569 39.2473 120.371 36.0373C115.837 34.5189 111.085 33.4606 106.155 32.8886C79.8849 29.8406 53.0533 42.6829 39.5806 64.754C29.3389 81.5311 26.5772 103.757 32.4258 122.337ZM83.5408 42.0488C84.8391 39.1205 87.7901 40.4392 90.2987 45.0701C92.951 49.9682 92.9383 52.856 90.264 53.2302C88.0698 53.5375 82.5305 44.3257 83.5408 42.0488ZM65.7282 50.3046C72.6297 50.1756 79.2005 55.7262 80.6503 62.9097C81.7094 68.1634 81.2266 70.7799 78.5089 74.4955C74.2313 80.3448 65.8472 82.9813 59.8936 80.3512C56.8472 79.0053 56.733 77.3703 59.3937 73.2155C62.3024 68.6737 63.7342 62.4228 62.9371 57.7421C61.997 52.22 62.695 50.362 65.7282 50.3046ZM64.8625 98.5449C67.7565 97.9815 68.4249 98.134 69.5538 99.6151C70.5669 100.946 70.5161 102.398 69.3337 105.934C64.5947 120.09 45.3656 120.794 40.2135 107C38.9902 103.723 38.9552 101.869 40.0462 98.2226C41.397 93.708 41.4952 93.6219 44.2546 94.573C52.1854 97.3062 61.7554 99.1505 64.8625 98.5449ZM45.4343 126.857C46.2365 123.387 49.2326 124.85 52.181 130.152C55.0948 135.392 55.139 136.133 52.6104 137.403C51.1091 138.157 50.3768 137.582 47.8775 133.685C46.1302 130.959 45.1313 128.168 45.4343 126.857ZM39.6504 77.1418C40.4495 73.606 43.422 74.7833 46.3038 79.775C47.8407 82.4385 49.014 84.9813 48.9111 85.4263C48.6802 86.4253 46.1286 88.0765 45.1604 87.8527C43.7483 87.5263 39.2701 78.8222 39.6504 77.1418Z" fill="black"/>
<path d="M107.491 52.4062C107.478 54.7208 106.727 58.6546 105.788 61.4362C107.806 58.0028 109.796 54.5818 111.755 51.1834C110.358 49.072 108.64 47.224 108.067 47.5822C107.766 47.7699 107.507 49.941 107.491 52.4062Z" fill="black"/>
<path d="M71.4045 73.5049C66.442 77.2324 65.1334 76.2384 67.2225 70.3286C68.1826 67.614 68.9695 63.449 68.9707 61.073C68.975 56.238 70.0069 55.8034 72.8334 59.4462C76.7398 64.4837 76.1883 69.9131 71.4045 73.5049Z" fill="black"/>
<path d="M59.6729 109.589C55.0501 112.475 49.1143 111.317 46.42 107.001C43.3267 102.049 44.3937 101.251 51.3361 103.329C54.7123 104.339 58.9039 105.011 60.6509 104.821C64.9181 104.357 64.4573 106.601 59.6729 109.589Z" fill="black"/>
<path d="M114.777 29.2311C118.203 30.0232 120.879 30.6542 123.065 31.2174C124.051 29.4455 125.026 27.6862 125.989 25.9412C123.604 25.2739 120.633 24.5538 116.587 23.5986C103.997 20.626 101.119 20.2607 94.3619 20.7729C57.1295 23.5989 28.0429 48.1401 19.8328 83.6551C13.7664 109.897 21.3428 137.295 40.0511 156.772C40.449 157.186 40.8547 157.597 41.2681 158.005C42.5002 156.477 43.7371 154.918 44.9782 153.332C41.3158 149.517 38.054 145.284 35.0751 140.514C28.6456 130.218 25.0423 119.836 23.7237 107.809C22.8744 100.056 23.0547 98.4005 26.2677 84.502C29.4806 70.6036 30.0451 69.037 34.2112 62.4431C40.6744 52.2153 48.4686 44.4681 58.7647 38.0386C69.0608 31.609 79.4427 28.0057 91.4694 26.6872C99.2228 25.8379 100.878 26.0182 114.777 29.2311Z" fill="black"/>
<path fill-rule="evenodd" clip-rule="evenodd" d="M128.849 20.7311C160.762 32.9638 184.795 63.8269 184.341 102.742C184.161 118.152 177.607 138.266 168.857 150.257C167.548 152.053 165.801 153.364 164.975 153.173C164.149 152.982 148.912 140.785 131.114 126.067C105.129 104.58 98.4876 99.5135 97.3955 100.345C96.3686 101.127 97.0623 111.709 100.236 143.641C103.137 172.822 104.055 186.139 103.204 186.671C101.222 187.909 86.9405 186.991 78.7659 185.102C62.6528 181.377 48.5941 173.451 37.5712 162.518C38.798 161.045 40.0306 159.54 41.2681 158.005C54.5209 171.073 75.5646 180.656 92.6335 181.274C97.7892 181.461 97.9751 181.374 97.9013 178.804C97.8475 176.921 96.9159 176.587 82.209 173.185C67.557 169.797 66.1274 169.287 59.4776 165.076C53.987 161.599 49.2146 157.745 44.9782 153.332C46.1083 151.888 47.2418 150.42 48.3781 148.931C49.0254 149.656 49.6509 150.308 50.2451 150.872C56.8667 157.158 65.8571 162.569 75.1176 165.845C82.1854 168.344 94.4777 170.592 95.9726 169.658C96.2804 169.466 95.1301 153.672 93.4168 134.56C90.4252 101.202 90.3839 99.7053 92.3846 97.1163C93.6724 95.4516 95.7082 94.2851 97.7077 94.0681C100.744 93.7379 102.652 95.1238 128.268 116.259L155.59 138.803L157.191 136.414C158.072 135.1 159.627 132.141 160.648 129.84C170.183 108.333 168.782 84.8381 156.802 65.3847C148.053 51.1762 135.412 41.0747 120.371 36.0373C121.278 34.4212 122.176 32.8142 123.065 31.2174C129.744 32.9383 131.842 34.0261 136.741 37.1376C158.543 50.9852 172.17 74.658 172.751 99.6923C173.001 110.458 169.461 125.666 164.451 135.346C160.955 142.102 160.816 142.621 162.109 144.119C162.865 144.994 163.8 145.784 164.187 145.873C165.14 146.093 169.441 138.769 172.3 132.055C175.423 124.721 178.513 110.455 178.61 102.928C178.819 86.5228 174.143 70.7233 164.968 56.8389C158.022 46.3256 150.011 38.5863 139.319 32.0607C133.923 28.7664 131.55 27.4976 125.989 25.9412C126.955 24.1895 127.909 22.4522 128.849 20.7311ZM135.371 134.159C152.459 148.276 167.057 160.692 167.811 161.752C168.569 162.817 168.774 164.293 168.269 165.055C163.1 172.865 144.076 186.314 131.908 190.759C123.792 193.724 111.514 195.928 109.749 194.737C108.928 194.183 107.028 178.311 104.662 152.24C101.38 116.065 101.109 110.486 102.594 109.559C104.078 108.632 108.363 111.849 135.371 134.159ZM132.879 184.046C140.534 181.056 148.759 176.016 154.759 170.639L154.874 170.536C160.094 165.859 161.606 164.504 161.389 163.538C161.3 163.144 160.924 162.815 160.394 162.351L160.366 162.327C157.79 160.074 157.159 160.217 153.251 163.936C144.921 171.863 127.84 181.196 117.498 183.471C114.239 184.188 113.501 184.763 113.622 186.488C113.704 187.659 113.859 188.783 113.967 188.984C114.291 189.594 127.513 186.141 132.879 184.046ZM140.003 167.128C140.614 166.921 143.635 164.589 146.716 161.946C149.797 159.304 152.383 156.859 152.462 156.515C152.542 156.17 142.426 147.477 129.982 137.197C117.539 126.916 107.323 118.657 107.28 118.841C107.237 119.026 107.357 120.599 107.545 122.335C107.853 125.171 108.37 125.654 112.626 127.078C120.203 129.615 124.515 136.193 123.543 143.733C122.715 150.157 121.574 150.782 115.866 147.936C113.275 146.643 110.862 145.77 110.502 145.995C110.143 146.219 110.541 153.708 111.388 162.639C112.896 178.549 112.975 178.857 115.299 177.985C116.603 177.495 118.335 175.697 119.147 173.988C120.685 170.752 121.302 162.688 120.297 158.97C119.436 155.79 121.894 154.399 126.493 155.462C131.409 156.598 135.847 160.128 137.551 164.257C138.289 166.043 139.392 167.334 140.003 167.128ZM149.02 78.2583C152.862 80.3088 156.739 86.2302 157.295 90.8969C157.71 94.3726 156.068 99.305 154.297 99.9051C153.669 100.118 151.037 99.1627 148.447 97.7832C143.04 94.9022 137.228 94.0527 131.54 95.3114C127.705 96.1597 127.545 96.1176 126.648 94.02C124.489 88.9726 129.916 79.7365 136.25 77.6765C141.437 75.9899 145.08 76.1558 149.02 78.2583ZM141.386 108.593C142.643 105.357 145.602 106.547 148.193 111.328C150.916 116.357 150.951 117.598 148.407 118.876C146.906 119.631 146.169 119.049 143.646 115.113C141.765 112.179 140.929 109.769 141.386 108.593ZM138.095 88.9962C140.767 89.014 144.775 89.7484 147.003 90.6275C151.716 92.4888 152.839 91.1081 149.985 86.9587C147.548 83.416 144.751 82.0811 140.568 82.4653C137.289 82.7669 131.962 86.9216 132.91 88.4391C133.089 88.7267 135.423 88.9774 138.095 88.9962ZM125.494 174.386C125.613 174.603 127.276 174.1 129.189 173.27C133.45 171.421 134.01 169.476 131.461 165.392C128.363 160.431 127.363 160.907 126.255 167.863C125.718 171.235 125.375 174.169 125.494 174.386ZM128.654 54.4688C130.402 53.3769 130.808 53.6681 133.581 57.993C135.491 60.9716 136.337 63.3929 135.879 64.5724C134.709 67.5863 131.804 66.6503 129.69 62.5783C126.661 56.7471 126.538 55.7895 128.654 54.4688ZM111.501 139.809C112.87 140.132 114.907 140.886 116.027 141.481C118.883 143.001 119.054 140.994 116.428 136.788C115 134.501 113.275 133.087 111.38 132.649C108.534 131.991 108.502 132.026 108.755 135.601C108.961 138.509 109.5 139.335 111.501 139.809ZM111.645 81.9229C113.358 81.4606 114.144 82.1529 116.292 86.015C119.038 90.9541 119.081 94.1669 116.404 94.5416C115.344 94.69 113.777 93.0345 111.92 89.8007C108.715 84.2196 108.663 82.7301 111.645 81.9229ZM114.864 45.7655C117.556 48.4856 119.563 52.0965 119.809 55.6869C120.32 63.1527 115.108 70.0233 107.646 71.7208C104.266 72.4895 101.615 72.5378 99.6065 71.8521C101.692 68.3745 103.754 64.8991 105.788 61.4362C105.728 61.6163 105.666 61.7915 105.604 61.9611C103.804 66.8682 103.816 67.0144 105.967 66.4327C107.191 66.1024 109.359 64.8925 110.786 63.7448C113.733 61.3767 114.592 58.7383 113.64 54.9737C113.375 53.9227 112.628 52.5017 111.755 51.1834C112.801 49.3705 113.837 47.564 114.864 45.7655ZM70.6859 120.801C77.0481 120.682 84.1544 127.818 85.0228 135.199C85.8504 142.228 80.3907 149.483 73.0121 151.161C67.6598 152.378 64.2183 151.8 62.0823 149.327C60.7999 147.841 60.8185 147.22 62.2007 145.419C65.4701 141.16 67.1927 135.059 66.8515 128.943C66.6934 126.114 66.699 124.244 67.0163 123.02C67.2393 122.159 67.6165 121.617 68.1991 121.284C68.7948 120.943 69.6054 120.821 70.6859 120.801ZM69.5124 146.357C69.967 146.462 71.9257 145.656 73.8654 144.567C80.7996 140.672 81.0633 132.089 74.3804 127.815C73.15 127.028 72.7893 127.207 72.844 128.576C73.0441 133.53 72.2995 137.899 70.5848 141.824C69.5406 144.212 69.0588 146.252 69.5124 146.357ZM88.5319 89.9721C88.9637 90.8361 89.2197 91.4005 89.203 91.4727C88.866 92.9307 87.2422 94.2087 85.8967 94.178C86.7775 92.7792 87.656 91.377 88.5319 89.9721Z" fill="black"/>
</svg>
