<?xml version="1.0" encoding="iso-8859-1"?>
<!-- Generator: Adobe Illustrator 19.0.0, SVG Export Plug-In . SVG Version: 6.00 Build 0)  -->
<svg version="1.1" id="Capa_1" xmlns="http://www.w3.org/2000/svg" xmlns:xlink="http://www.w3.org/1999/xlink" x="0px" y="0px"
	 viewBox="0 0 512.012 512.012" style="enable-background:new 0 0 512.012 512.012;" xml:space="preserve">
<g>
	<g>
		<path d="M415.656,301.148c-3.328-3.336-8.738-3.336-12.066,0l-17.066,17.066c-3.336,3.336-3.336,8.729,0,12.066
			c1.664,1.664,3.848,2.5,6.033,2.5c2.176,0,4.369-0.828,6.033-2.5l17.066-17.066C418.992,309.878,418.992,304.485,415.656,301.148z
			"/>
	</g>
</g>
<g>
	<g>
		<path d="M412.925,99.125C367.409,53.6,304.323,30.134,239.821,34.699C135.955,42.08,50.341,122.241,36.262,225.296
			c-4.727,34.577-1.519,68.743,9.523,101.536c0.759,2.236,2.406,4.07,4.557,5.043c2.15,0.981,4.608,1.024,6.792,0.119
			l194.343-80.434c3.934-1.604,6.716,0.742,7.475,1.493c0.759,0.759,3.115,3.55,1.485,7.475L180.02,454.874
			c-0.896,2.176-0.862,4.642,0.119,6.792c0.973,2.15,2.807,3.806,5.043,4.557c23.005,7.748,46.677,11.639,70.698,11.639
			c10.206,0,20.488-0.7,30.788-2.108c103.047-14.063,183.225-99.651,190.631-203.5C481.907,207.752,458.441,144.649,412.925,99.125z
			 M460.276,271.034c-6.835,95.845-80.818,174.828-175.912,187.807c-28.876,3.942-57.428,1.911-85.008-6.059l76.841-185.716
			c3.772-9.105,1.783-19.097-5.188-26.069c-6.971-6.972-16.964-8.96-26.069-5.188l-185.716,76.85
			c-7.97-27.596-10.009-56.157-6.059-85.05C66.17,132.507,145.171,58.532,241.024,51.723c59.57-4.258,117.818,17.442,159.827,59.468
			C442.868,153.217,464.525,211.481,460.276,271.034z"/>
	</g>
</g>
<g>
	<g>
		<path d="M236.459,275.549c-2.432-2.44-6.101-3.174-9.293-1.852L5.303,365.505c-2.099,0.862-3.755,2.526-4.625,4.616
			c-0.87,2.091-0.87,4.446,0,6.536c25.07,60.517,74.153,109.6,134.671,134.671c1.05,0.435,2.159,0.649,3.268,0.649
			s2.219-0.213,3.268-0.649c2.091-0.87,3.746-2.534,4.616-4.625L238.31,284.84C239.633,281.658,238.899,277.989,236.459,275.549z
			 M134.06,492.147c-50.184-23.04-91.16-64.025-114.2-114.2l194.813-80.613L134.06,492.147z"/>
	</g>
</g>
<g>
	<g>
		<path d="M436.809,74.746C380.789,18.862,303.231-7.677,224.017,1.932C108.913,15.909,17.762,106.037,2.368,221.107
			c-5.495,41.036-1.391,81.39,12.202,119.951c0.777,2.21,2.44,4.011,4.582,4.966c2.142,0.947,4.591,0.981,6.758,0.068l225.541-94.36
			c3.925-1.638,6.724,0.708,7.484,1.468c0.768,0.759,3.132,3.541,1.51,7.475l-93.063,225.976c-0.896,2.167-0.853,4.616,0.111,6.758
			c0.964,2.142,2.773,3.789,4.992,4.557c27.076,9.344,54.979,14.046,83.344,14.046c11.972-0.009,24.021-0.845,36.112-2.509
			c114.823-15.889,204.549-107.245,218.211-222.17C519.564,208.111,492.838,130.621,436.809,74.746z M493.205,285.311
			c-12.749,107.22-96.468,192.449-203.602,207.271c-35.054,4.855-69.639,2.176-102.936-7.961l89.556-217.443
			c3.755-9.122,1.749-19.114-5.248-26.077c-6.997-6.955-17.007-8.917-26.112-5.111L27.813,326.8
			c-10.385-33.382-13.261-68.129-8.533-103.422C33.65,116.003,118.684,31.909,226.074,18.879
			c73.983-8.985,146.395,15.786,198.687,67.95C477.052,138.983,501.995,211.328,493.205,285.311z"/>
	</g>
</g>
<g>
	<g>
		<path d="M236.467,275.549c-2.432-2.44-6.101-3.174-9.293-1.852L33.326,353.909c-2.219,0.913-3.942,2.714-4.762,4.966
			c-0.82,2.252-0.657,4.744,0.452,6.869c25.966,49.74,68.257,90.17,119.072,113.841c1.135,0.529,2.364,0.794,3.601,0.794
			c1.05,0,2.099-0.188,3.098-0.58c2.167-0.836,3.9-2.534,4.787-4.685l78.744-190.273
			C239.642,281.658,238.908,277.989,236.467,275.549z M147.287,460.198c-41.096-21.077-75.647-54.058-98.652-94.155l166.039-68.701
			L147.287,460.198z"/>
	</g>
</g>
<g>
	<g>
		<path d="M236.715,163.081c-7.484-10.146-11.776-24.593-11.776-39.637c0-8.815,1.417-17.28,4.215-25.13
			c0.87-2.44,0.58-5.137-0.777-7.339c-1.357-2.202-3.644-3.669-6.212-3.985c-1.894-0.239-3.806-0.393-5.76-0.393
			c-25.523,0-46.293,20.77-46.293,46.293c0,25.523,20.77,46.293,46.293,46.293c5.598,0,11.136-1.024,16.478-3.063
			c2.492-0.947,4.403-3.012,5.154-5.572C238.788,167.988,238.302,165.223,236.715,163.081z M187.179,132.891
			c0-13.832,9.66-25.455,22.596-28.467c-1.263,6.152-1.903,12.518-1.903,19.021c0,13.994,2.944,27.332,8.439,38.672
			C200.244,162.066,187.179,148.976,187.179,132.891z"/>
	</g>
</g>
<g>
	<g>
		<path d="M320.075,325.527c-5.598,0-11.144,1.033-16.478,3.063c-2.492,0.947-4.403,3.012-5.154,5.572
			c-0.751,2.56-0.265,5.325,1.323,7.466c7.484,10.146,11.776,24.593,11.776,39.637c0,8.815-1.417,17.28-4.215,25.13
			c-0.87,2.44-0.58,5.137,0.776,7.339c1.357,2.202,3.644,3.669,6.212,3.985c1.894,0.239,3.806,0.393,5.76,0.393
			c25.531,0,46.293-20.77,46.293-46.293S345.598,325.527,320.075,325.527z M326.706,400.295c1.263-6.161,1.903-12.518,1.903-19.029
			c0-13.995-2.944-27.332-8.439-38.672c16.077,0.051,29.141,13.141,29.132,29.235C349.302,385.661,339.642,397.283,326.706,400.295z
			"/>
	</g>
</g>
<g>
	<g>
		<path d="M430.7,218.999c-0.896-2.517-2.91-4.471-5.444-5.282c-2.534-0.819-5.316-0.393-7.501,1.135
			c-10.334,7.236-24.84,11.05-39.91,10.803c-8.832-0.213-17.246-1.843-25.028-4.83c-2.415-0.93-5.128-0.708-7.356,0.597
			c-2.236,1.297-3.763,3.541-4.147,6.101c-0.282,1.894-0.486,3.806-0.529,5.76c-0.623,25.523,19.626,46.796,45.149,47.419
			c0.384,0.017,0.759,0.017,1.143,0.017c25.011-0.008,45.653-20.027,46.284-45.175C433.499,229.947,432.603,224.375,430.7,218.999z
			 M386.353,263.645c-13.832-0.341-25.207-10.291-27.904-23.296c6.118,1.417,12.467,2.21,18.978,2.364
			c13.986,0.384,27.392-2.27,38.86-7.484C415.843,251.297,402.25,263.969,386.353,263.645z"/>
	</g>
</g>
<g>
	<g>
		<path d="M174.687,190.293c-0.887-2.517-2.893-4.471-5.436-5.282c-2.543-0.819-5.308-0.401-7.501,1.135
			c-10.325,7.236-24.823,11.127-39.91,10.803c-8.823-0.213-17.246-1.843-25.028-4.83c-2.415-0.939-5.128-0.717-7.356,0.597
			c-2.236,1.297-3.763,3.541-4.147,6.101c-0.282,1.886-0.478,3.806-0.529,5.76c-0.623,25.523,19.626,46.796,45.149,47.419
			c0.384,0.017,0.759,0.017,1.143,0.017c25.002-0.009,45.653-20.036,46.276-45.183C177.486,201.242,176.59,195.669,174.687,190.293z
			 M130.348,234.939c-13.841-0.341-25.224-10.291-27.912-23.296c6.127,1.417,12.467,2.21,18.978,2.364
			c13.994,0.333,27.4-2.27,38.869-7.484C159.831,222.592,146.297,235.144,130.348,234.939z"/>
	</g>
</g>
<g>
	<g>
		<path d="M370.959,117.48c-0.896-2.517-2.91-4.471-5.444-5.282s-5.316-0.393-7.501,1.135c-10.325,7.228-24.891,11.127-39.91,10.794
			c-8.815-0.213-17.237-1.843-25.019-4.83c-2.423-0.939-5.12-0.717-7.356,0.589c-2.227,1.306-3.755,3.55-4.139,6.101
			c-0.282,1.886-0.486,3.806-0.529,5.76c-0.307,12.365,4.224,24.106,12.749,33.058c8.525,8.96,20.036,14.054,32.392,14.361
			c0.393,0.017,0.776,0.017,1.169,0.017c11.929,0,23.219-4.505,31.889-12.766c8.96-8.525,14.063-20.027,14.361-32.392
			C373.758,128.428,372.862,122.856,370.959,117.48z M347.501,154.053c-5.657,5.393-13.056,8.192-20.872,8.055
			c-7.808-0.188-15.07-3.405-20.454-9.062c-3.831-4.019-6.383-8.917-7.467-14.225c6.127,1.417,12.476,2.21,18.995,2.364
			c13.96,0.341,27.392-2.278,38.86-7.484C356.35,141.467,353.133,148.694,347.501,154.053z"/>
	</g>
</g>
<g>
	<g>
		<path d="M189.27,297.368c-2.159-3.678-6.681-5.205-10.632-3.575l-33.715,13.952c-3.678,1.519-5.811,5.376-5.154,9.293
			c0.742,4.412,1.118,8.798,1.118,13.03c0,8.815-1.417,17.28-4.215,25.13c-0.87,2.432-0.589,5.128,0.768,7.33
			c1.357,2.202,3.635,3.669,6.195,3.994c1.894,0.239,3.814,0.393,5.777,0.393c25.531,0,46.301-20.761,46.301-46.276
			C195.713,312.506,193.545,304.681,189.27,297.368z M156.05,349.088c1.263-6.161,1.903-12.518,1.903-19.029
			c0-2.978-0.154-6.007-0.452-9.062l19.993-8.277c0.768,2.586,1.152,5.231,1.152,7.902
			C178.646,334.453,168.987,346.075,156.05,349.088z"/>
	</g>
</g>
<g>
	<g>
		<path d="M124.768,373.475c-0.887-2.517-2.893-4.471-5.436-5.282c-2.543-0.811-5.316-0.393-7.501,1.135
			c-10.334,7.236-24.883,11.11-39.91,10.803c-6.34-0.154-12.612-1.084-18.654-2.765c-3.439-0.964-7.117,0.341-9.207,3.234
			c-2.099,2.901-2.15,6.792-0.154,9.762c10.564,15.65,22.425,29.806,35.242,42.077c1.596,1.519,3.712,2.364,5.896,2.364
			c0.29,0,0.589-0.017,0.879-0.051c23.091-2.398,40.934-21.632,41.505-44.74C127.567,384.424,126.671,378.851,124.768,373.475z
			 M87.913,417.14c-6.229-6.187-12.202-12.877-17.886-20.002c0.495,0.026,0.981,0.034,1.468,0.043
			c14.003,0.393,27.392-2.27,38.869-7.484C109.997,402.932,100.602,414.128,87.913,417.14z"/>
	</g>
</g>
<g>
	<g>
		<path d="M321.791,275.549c-3.328-3.336-8.738-3.336-12.066,0l-17.066,17.066c-3.336,3.337-3.336,8.729,0,12.066
			c1.664,1.664,3.848,2.5,6.033,2.5c2.176,0,4.369-0.828,6.033-2.5l17.066-17.066C325.127,284.278,325.127,278.885,321.791,275.549z
			"/>
	</g>
</g>
<g>
	<g>
		<path d="M279.125,386.48c-3.328-3.336-8.738-3.336-12.066,0l-17.066,17.066c-3.336,3.336-3.336,8.729,0,12.066
			c1.664,1.664,3.849,2.5,6.033,2.5c2.176,0,4.369-0.828,6.033-2.5l17.066-17.066C282.461,395.209,282.461,389.817,279.125,386.48z"
			/>
	</g>
</g>
<g>
	<g>
		<path d="M296.191,190.217c-3.328-3.336-8.738-3.336-12.066,0l-17.066,17.066c-3.336,3.336-3.336,8.729,0,12.066
			c1.664,1.664,3.848,2.5,6.033,2.5c2.176,0,4.369-0.828,6.033-2.5l17.066-17.066C299.527,198.946,299.527,193.553,296.191,190.217z
			"/>
	</g>
</g>
<g>
	<g>
		<path d="M415.656,164.617c-3.328-3.336-8.738-3.336-12.066,0l-17.066,17.066c-3.336,3.336-3.336,8.729,0,12.066
			c1.664,1.664,3.848,2.5,6.033,2.5c2.176,0,4.369-0.828,6.033-2.5l17.066-17.066C418.992,173.347,418.992,167.954,415.656,164.617z
			"/>
	</g>
</g>
<g>
	<g>
		<path d="M279.125,70.752c-3.328-3.336-8.738-3.336-12.066,0l-17.066,17.066c-3.336,3.336-3.336,8.729,0,12.066
			c1.664,1.664,3.849,2.5,6.033,2.5c2.176,0,4.369-0.828,6.033-2.5l17.066-17.066C282.461,79.481,282.461,74.089,279.125,70.752z"/>
	</g>
</g>
<g>
	<g>
		<path d="M142.594,130.484c-3.328-3.336-8.738-3.336-12.066,0l-17.066,17.066c-3.336,3.336-3.336,8.729,0,12.066
			c1.664,1.664,3.848,2.5,6.033,2.5c2.176,0,4.369-0.828,6.033-2.5l17.066-17.066C145.93,139.214,145.93,133.821,142.594,130.484z"
			/>
	</g>
</g>
<g>
</g>
<g>
</g>
<g>
</g>
<g>
</g>
<g>
</g>
<g>
</g>
<g>
</g>
<g>
</g>
<g>
</g>
<g>
</g>
<g>
</g>
<g>
</g>
<g>
</g>
<g>
</g>
<g>
</g>
</svg>
